# This file uses centimeters as units for non-parametric coordinates.

mtllib Rock_Group_1.mtl
g default
v 3.963612 0.848807 1.326894
v 1.809643 0.848807 -1.975873
v 3.963612 6.311838 1.326894
v 3.614893 4.791884 -4.006199
v 0.660846 4.791883 3.480864
v -1.493124 4.791884 0.178096
v 0.660846 0.848807 3.480864
v -1.493124 0.848807 0.178096
v 2.689174 7.001876 2.981863
v -2.448054 2.820345 -0.022943
v -0.994124 0.158768 2.206423
v 0.459805 2.820345 4.435790
v -0.218685 0.158768 -1.476874
v 2.689174 0.158768 2.981863
v 3.464612 0.158768 -0.701436
v 3.815933 2.820345 -4.961130
v 5.660157 7.001876 -2.133306
v 4.918541 2.820345 1.527933
v -0.608979 5.481922 -2.075327
v -0.994124 5.481922 2.206423
v 6.403277 2.820345 -2.617949
v 1.235244 7.889069 0.752494
v -1.737247 2.820345 2.691068
v 1.235244 -0.728424 0.752494
v -1.093623 2.820345 -2.818450
v 3.173817 2.820345 3.724985
v 2.842460 7.460777 6.977765
v 4.469608 4.431347 5.048310
v -1.343935 4.274609 8.449885
v 0.452087 2.274140 3.587153
v 1.762468 4.120984 11.310789
v 3.389618 1.091552 9.381336
v 4.784101 6.420679 10.248250
v 6.411251 3.391248 8.318796
v -1.186651 3.882264 10.608727
v 5.524973 1.529232 9.084747
v 6.466250 5.126391 9.669912
v 3.328322 5.618962 11.689507
v 6.253967 3.783593 6.159955
v 4.057315 7.873325 8.764717
v 3.845032 6.530526 5.254757
v 1.907867 3.075854 2.145892
v -2.689659 3.230880 4.924683
v 0.707104 7.023098 7.274354
v 2.469597 0.130080 7.244771
v 2.387045 2.021802 11.104342
v 0.077837 5.903668 3.062029
v -0.768193 1.319966 9.545417
v 4.863517 3.340076 11.122988
v 5.835508 6.345891 7.223264
v 4.875309 1.000751 6.093429
v 1.651604 7.002653 9.916058
v 5.397478 0.848807 1.581591
v 9.021744 0.848807 3.134829
v 5.397478 6.311838 1.581591
v 8.645926 4.791884 5.825536
v 6.950713 4.791883 -2.042675
v 10.574982 4.791884 -0.489439
v 6.950713 0.848807 -2.042675
v 10.574982 0.848807 -0.489439
v 5.539848 7.001876 -0.502358
v 11.481045 2.820345 -0.851870
v 9.034665 0.158768 -1.900303
v 6.588285 2.820345 -2.948737
v 10.432610 0.158768 1.594511
v 5.539848 0.158768 -0.502358
v 6.937795 0.158768 2.992458
v 9.008357 2.820345 6.731601
v 5.905266 7.001876 5.401722
v 4.491414 2.820345 1.944022
v 11.089317 5.481922 1.875955
v 9.034665 5.481922 -1.900303
v 5.555789 2.820345 6.217181
v 7.986229 7.889069 0.546077
v 9.384142 2.820345 -2.715765
v 7.986229 -0.728424 0.546077
v 11.904778 2.820345 2.225433
v 4.724388 2.820345 -0.851836
vt 0.273941 -0.443981
vt 0.398941 -0.443981
vt 0.398941 -0.318981
vt 0.273941 -0.318981
vt 0.523941 -0.443981
vt 0.523941 -0.318981
vt 0.523941 -0.193981
vt 0.398941 -0.193981
vt 0.273941 -0.193981
vt 0.398941 -0.068981
vt 0.273941 -0.068981
vt 0.523941 -0.068981
vt 0.523941 0.056019
vt 0.398941 0.056019
vt 0.273941 0.056019
vt 0.398941 0.181019
vt 0.273941 0.181019
vt 0.523941 0.181019
vt 0.523941 0.306019
vt 0.398941 0.306019
vt 0.273941 0.306019
vt 0.398941 0.431019
vt 0.273941 0.431019
vt 0.523941 0.431019
vt 0.523941 0.556019
vt 0.398941 0.556019
vt 0.273941 0.556019
vt 0.648941 -0.443981
vt 0.648941 -0.318981
vt 0.773941 -0.443981
vt 0.773941 -0.318981
vt 0.773941 -0.193981
vt 0.648941 -0.193981
vt 0.023941 -0.443981
vt 0.148941 -0.443981
vt 0.148941 -0.318981
vt 0.023941 -0.318981
vt 0.148941 -0.193981
vt 0.023941 -0.193981
vt 0.273941 -0.443981
vt 0.398941 -0.443981
vt 0.398941 -0.318981
vt 0.273941 -0.318981
vt 0.523941 -0.443981
vt 0.523941 -0.318981
vt 0.523941 -0.193981
vt 0.398941 -0.193981
vt 0.273941 -0.193981
vt 0.398941 -0.068981
vt 0.273941 -0.068981
vt 0.523941 -0.068981
vt 0.523941 0.056019
vt 0.398941 0.056019
vt 0.273941 0.056019
vt 0.398941 0.181019
vt 0.273941 0.181019
vt 0.523941 0.181019
vt 0.523941 0.306019
vt 0.398941 0.306019
vt 0.273941 0.306019
vt 0.398941 0.431019
vt 0.273941 0.431019
vt 0.523941 0.431019
vt 0.523941 0.556019
vt 0.398941 0.556019
vt 0.273941 0.556019
vt 0.648941 -0.443981
vt 0.648941 -0.318981
vt 0.773941 -0.443981
vt 0.773941 -0.318981
vt 0.773941 -0.193981
vt 0.648941 -0.193981
vt 0.023941 -0.443981
vt 0.148941 -0.443981
vt 0.148941 -0.318981
vt 0.023941 -0.318981
vt 0.148941 -0.193981
vt 0.023941 -0.193981
vt 0.273941 -0.443981
vt 0.398941 -0.443981
vt 0.398941 -0.318981
vt 0.273941 -0.318981
vt 0.523941 -0.443981
vt 0.523941 -0.318981
vt 0.523941 -0.193981
vt 0.398941 -0.193981
vt 0.273941 -0.193981
vt 0.398941 -0.068981
vt 0.273941 -0.068981
vt 0.523941 -0.068981
vt 0.523941 0.056019
vt 0.398941 0.056019
vt 0.273941 0.056019
vt 0.398941 0.181019
vt 0.273941 0.181019
vt 0.523941 0.181019
vt 0.523941 0.306019
vt 0.398941 0.306019
vt 0.273941 0.306019
vt 0.398941 0.431019
vt 0.273941 0.431019
vt 0.523941 0.431019
vt 0.523941 0.556019
vt 0.398941 0.556019
vt 0.273941 0.556019
vt 0.648941 -0.443981
vt 0.648941 -0.318981
vt 0.773941 -0.443981
vt 0.773941 -0.318981
vt 0.773941 -0.193981
vt 0.648941 -0.193981
vt 0.023941 -0.443981
vt 0.148941 -0.443981
vt 0.148941 -0.318981
vt 0.023941 -0.318981
vt 0.148941 -0.193981
vt 0.023941 -0.193981
vn 0.727531 -0.628281 0.275612
vn 0.485017 -0.849535 -0.207481
vn 0.949652 -0.232842 -0.209632
vn 0.897304 -0.069793 0.435862
vn 0.027127 -0.782318 -0.622289
vn 0.124720 -0.248535 -0.960560
vn -0.023492 0.565731 -0.824255
vn 0.572987 0.767074 -0.288588
vn 0.776304 0.459076 0.431974
vn -0.232151 0.962520 -0.140219
vn 0.306879 0.650610 0.694645
vn -0.474297 0.641266 -0.603175
vn -0.858554 0.506470 -0.079830
vn -0.704513 0.594096 0.388216
vn -0.236597 0.436706 0.867934
vn -0.837612 0.000000 0.546266
vn -0.196864 -0.000000 0.980431
vn -0.990187 -0.031968 -0.136041
vn -0.793570 -0.594917 -0.127752
vn -0.592281 -0.707107 0.386268
vn -0.168208 -0.577350 0.798982
vn 0.000000 -1.000000 0.000000
vn 0.386268 -0.707107 0.592281
vn -0.380222 -0.755586 -0.533405
vn -0.592386 -0.101103 -0.799285
vn 0.546262 0.003733 0.837606
vn -0.003742 0.970161 -0.242433
vn 0.357533 0.702565 -0.615283
vn -0.411262 0.639482 -0.649559
vn -0.552298 0.833234 -0.026216
vn 0.629900 0.162851 -0.759411
vn 0.184533 -0.254887 -0.949200
vn -0.355358 -0.756660 -0.548805
vn -0.931193 -0.224431 -0.287248
vn -0.880097 0.445327 0.164663
vn -0.578759 -0.780119 0.237596
vn -0.747572 0.164078 0.643595
vn -0.142630 -0.979100 -0.144980
vn 0.165657 -0.885276 0.434563
vn -0.035631 -0.603938 0.796235
vn -0.250268 0.027208 0.967794
vn 0.492418 -0.263778 0.829425
vn 0.050418 0.363545 0.930211
vn 0.666544 -0.683648 0.297228
vn 0.971886 -0.225223 0.068642
vn 0.890058 0.225882 0.395948
vn 0.488480 0.628005 0.605803
vn 0.766313 0.583224 -0.269470
vn 0.250071 0.955665 0.155463
vn 0.862440 -0.069311 -0.501391
vn 0.516617 -0.719730 -0.463784
vn -0.415517 0.766109 0.490329
vn -0.758223 -0.628281 0.174243
vn -0.288466 -0.849535 0.441676
vn -0.673871 -0.232842 0.701201
vn -0.988373 -0.069793 0.135082
vn 0.322616 -0.782318 0.532820
vn 0.429055 -0.248535 0.868414
vn 0.476765 0.565731 0.672788
vn -0.316671 0.767074 0.557958
vn -0.885539 0.459076 0.071197
vn 0.270941 0.962520 -0.012107
vn -0.640662 0.650610 -0.407750
vn 0.729222 0.641266 0.238775
vn 0.758639 0.506470 -0.409822
vn 0.370842 0.594096 -0.713811
vn -0.284589 0.436706 -0.853403
vn 0.393915 0.000000 -0.919147
vn -0.380051 0.000000 -0.924966
vn 0.899345 -0.031968 -0.436070
vn 0.731152 -0.594917 -0.333902
vn 0.278540 -0.707107 -0.649935
vn -0.303243 -0.577350 -0.758097
vn -0.000000 -1.000000 0.000000
vn -0.649935 -0.707107 -0.278540
vn 0.612246 -0.755586 0.232907
vn 0.936261 -0.101103 0.336442
vn -0.919141 0.003733 -0.393912
s 1
g polySurface3
usemtl lambert3SG
f 1/1/1 15/2/2 21/3/3 18/4/4
f 15/2/2 2/5/5 16/6/6 21/3/3
f 21/3/3 16/6/6 4/7/7 17/8/8
f 18/4/4 21/3/3 17/8/8 3/9/9
f 3/9/9 17/8/8 22/10/10 9/11/11
f 17/8/8 4/7/7 19/12/12 22/10/10
f 22/10/10 19/12/12 6/13/13 20/14/14
f 9/11/11 22/10/10 20/14/14 5/15/15
f 5/15/15 20/14/14 23/16/16 12/17/17
f 20/14/14 6/13/13 10/18/18 23/16/16
f 23/16/16 10/18/18 8/19/19 11/20/20
f 12/17/17 23/16/16 11/20/20 7/21/21
f 7/21/21 11/20/20 24/22/22 14/23/23
f 11/20/20 8/19/19 13/24/24 24/22/22
f 24/22/22 13/24/24 2/25/5 15/26/2
f 14/23/23 24/22/22 15/26/2 1/27/1
f 2/5/5 13/28/24 25/29/25 16/6/6
f 13/28/24 8/30/19 10/31/18 25/29/25
f 25/29/25 10/31/18 6/32/13 19/33/12
f 16/6/6 25/29/25 19/33/12 4/7/7
f 7/34/21 14/35/23 26/36/26 12/37/17
f 14/35/23 1/1/1 18/4/4 26/36/26
f 26/36/26 18/4/4 3/9/9 9/38/11
f 12/37/17 26/36/26 9/38/11 5/39/15
s 2
f 27/40/27 41/41/28 47/42/29 44/43/30
f 41/41/28 28/44/31 42/45/32 47/42/29
f 47/42/29 42/45/32 30/46/33 43/47/34
f 44/43/30 47/42/29 43/47/34 29/48/35
f 29/48/35 43/47/34 48/49/36 35/50/37
f 43/47/34 30/46/33 45/51/38 48/49/36
f 48/49/36 45/51/38 32/52/39 46/53/40
f 35/50/37 48/49/36 46/53/40 31/54/41
f 31/54/41 46/53/40 49/55/42 38/56/43
f 46/53/40 32/52/39 36/57/44 49/55/42
f 49/55/42 36/57/44 34/58/45 37/59/46
f 38/56/43 49/55/42 37/59/46 33/60/47
f 33/60/47 37/59/46 50/61/48 40/62/49
f 37/59/46 34/58/45 39/63/50 50/61/48
f 50/61/48 39/63/50 28/64/31 41/65/28
f 40/62/49 50/61/48 41/65/28 27/66/27
f 28/44/31 39/67/50 51/68/51 42/45/32
f 39/67/50 34/69/45 36/70/44 51/68/51
f 51/68/51 36/70/44 32/71/39 45/72/38
f 42/45/32 51/68/51 45/72/38 30/46/33
f 33/73/47 40/74/49 52/75/52 38/76/43
f 40/74/49 27/40/27 44/43/30 52/75/52
f 52/75/52 44/43/30 29/48/35 35/77/37
f 38/76/43 52/75/52 35/77/37 31/78/41
s 3
f 53/79/53 67/80/54 73/81/55 70/82/56
f 67/80/54 54/83/57 68/84/58 73/81/55
f 73/81/55 68/84/58 56/85/59 69/86/60
f 70/82/56 73/81/55 69/86/60 55/87/61
f 55/87/61 69/86/60 74/88/62 61/89/63
f 69/86/60 56/85/59 71/90/64 74/88/62
f 74/88/62 71/90/64 58/91/65 72/92/66
f 61/89/63 74/88/62 72/92/66 57/93/67
f 57/93/67 72/92/66 75/94/68 64/95/69
f 72/92/66 58/91/65 62/96/70 75/94/68
f 75/94/68 62/96/70 60/97/71 63/98/72
f 64/95/69 75/94/68 63/98/72 59/99/73
f 59/99/73 63/98/72 76/100/74 66/101/75
f 63/98/72 60/97/71 65/102/76 76/100/74
f 76/100/74 65/102/76 54/103/57 67/104/54
f 66/101/75 76/100/74 67/104/54 53/105/53
f 54/83/57 65/106/76 77/107/77 68/84/58
f 65/106/76 60/108/71 62/109/70 77/107/77
f 77/107/77 62/109/70 58/110/65 71/111/64
f 68/84/58 77/107/77 71/111/64 56/85/59
f 59/112/73 66/113/75 78/114/78 64/115/69
f 66/113/75 53/79/53 70/82/56 78/114/78
f 78/114/78 70/82/56 55/87/61 61/116/63
f 64/115/69 78/114/78 61/116/63 57/117/67
