# This file uses centimeters as units for non-parametric coordinates.

mtllib Rock_1.mtl
g default
v -2.043604 0.848807 1.000759
v 1.580662 0.848807 2.553996
v -2.043604 6.311838 1.000759
v 1.204844 4.791884 5.244704
v -0.490369 4.791884 -2.623508
v 3.133900 4.791884 -1.070271
v -0.490368 0.848807 -2.623508
v 3.133900 0.848807 -1.070271
v -1.901233 7.001876 -1.083190
v 4.039963 2.820345 -1.432702
v 1.593584 0.158768 -2.481135
v -0.852796 2.820345 -3.529570
v 2.991528 0.158768 1.013679
v -1.901233 0.158768 -1.083190
v -0.503287 0.158768 2.411625
v 1.567275 2.820345 6.150769
v -1.535816 7.001876 4.820890
v -2.949668 2.820345 1.363190
v 3.648236 5.481922 1.295122
v 1.593584 5.481922 -2.481135
v -1.885292 2.820345 5.636348
v 0.545148 7.889068 -0.034756
v 1.943060 2.820345 -3.296597
v 0.545148 -0.728424 -0.034756
v 4.463698 2.820345 1.644600
v -2.716693 2.820345 -1.432668
vt 0.273941 -0.443981
vt 0.273941 0.556019
vt 0.523941 -0.443981
vt 0.523941 0.556019
vt 0.273941 -0.193981
vt 0.523941 -0.193981
vt 0.273941 0.056019
vt 0.023941 -0.193981
vt 0.523941 0.056019
vt 0.773941 -0.193981
vt 0.273941 0.306019
vt 0.023941 -0.443981
vt 0.523941 0.306019
vt 0.773941 -0.443981
vt 0.398941 -0.318981
vt 0.398941 -0.068981
vt 0.398941 0.181019
vt 0.398941 0.431019
vt 0.648941 -0.318981
vt 0.148941 -0.318981
vt 0.398941 -0.443981
vt 0.398941 0.556019
vt 0.523941 -0.318981
vt 0.398941 -0.193981
vt 0.273941 -0.318981
vt 0.523941 -0.068981
vt 0.648941 -0.193981
vt 0.398941 0.056019
vt 0.273941 -0.068981
vt 0.148941 -0.193981
vt 0.523941 0.181019
vt 0.773941 -0.318981
vt 0.398941 0.306019
vt 0.273941 0.181019
vt 0.023941 -0.318981
vt 0.523941 0.431019
vt 0.648941 -0.443981
vt 0.273941 0.431019
vt 0.148941 -0.443981
vn -0.758223 -0.628281 0.174243
vn -0.288466 -0.849535 0.441676
vn -0.673871 -0.232842 0.701201
vn -0.988373 -0.069793 0.135082
vn 0.322616 -0.782318 0.532820
vn 0.429055 -0.248535 0.868414
vn 0.476765 0.565731 0.672788
vn -0.316671 0.767074 0.557958
vn -0.885539 0.459076 0.071197
vn 0.270941 0.962520 -0.012107
vn -0.640662 0.650610 -0.407750
vn 0.729222 0.641266 0.238775
vn 0.758639 0.506470 -0.409823
vn 0.370842 0.594096 -0.713811
vn -0.284589 0.436706 -0.853403
vn 0.393915 -0.000000 -0.919147
vn -0.380051 0.000000 -0.924966
vn 0.899345 -0.031968 -0.436070
vn 0.731152 -0.594917 -0.333903
vn 0.278540 -0.707107 -0.649935
vn -0.303243 -0.577350 -0.758097
vn -0.000000 -1.000000 -0.000000
vn -0.649935 -0.707107 -0.278540
vn 0.612246 -0.755586 0.232907
vn 0.936261 -0.101103 0.336442
vn -0.919141 0.003733 -0.393912
s 1
g pCube1
usemtl lambert3SG
f 1/1/1 15/21/2 21/15/3 18/25/4
f 15/21/2 2/3/5 16/23/6 21/15/3
f 21/15/3 16/23/6 4/6/7 17/24/8
f 18/25/4 21/15/3 17/24/8 3/5/9
f 3/5/9 17/24/8 22/16/10 9/29/11
f 17/24/8 4/6/7 19/26/12 22/16/10
f 22/16/10 19/26/12 6/9/13 20/28/14
f 9/29/11 22/16/10 20/28/14 5/7/15
f 5/7/15 20/28/14 23/17/16 12/34/17
f 20/28/14 6/9/13 10/31/18 23/17/16
f 23/17/16 10/31/18 8/13/19 11/33/20
f 12/34/17 23/17/16 11/33/20 7/11/21
f 7/11/21 11/33/20 24/18/22 14/38/23
f 11/33/20 8/13/19 13/36/24 24/18/22
f 24/18/22 13/36/24 2/4/5 15/22/2
f 14/38/23 24/18/22 15/22/2 1/2/1
f 2/3/5 13/37/24 25/19/25 16/23/6
f 13/37/24 8/14/19 10/32/18 25/19/25
f 25/19/25 10/32/18 6/10/13 19/27/12
f 16/23/6 25/19/25 19/27/12 4/6/7
f 7/12/21 14/39/23 26/20/26 12/35/17
f 14/39/23 1/1/1 18/25/4 26/20/26
f 26/20/26 18/25/4 3/5/9 9/30/11
f 12/35/17 26/20/26 9/30/11 5/8/15
