# This file uses centimeters as units for non-parametric coordinates.

mtllib Rock_Shit.mtl
g default
v -0.519145 4.030636 -3.081132
v 1.301831 2.815993 5.201155
v 3.938461 2.782328 -1.957177
v 4.593071 3.627850 2.408594
v 4.322721 5.366375 3.125983
v 5.056530 4.848510 1.954840
v 2.039756 7.580907 -1.515659
v 1.140764 7.925500 3.660125
v 2.311650 8.904951 2.422060
v 3.199082 7.812953 3.531800
v -2.564397 7.567901 -0.755769
v -1.501773 8.252715 4.309239
v -3.773116 4.928076 4.383918
v -3.299585 7.728056 3.344115
v -4.838133 2.407501 -0.359223
v -5.202890 3.668869 3.644093
v -4.143974 2.392811 3.846382
v -4.553183 4.153469 4.371107
v -4.645471 2.246856 1.387283
v -4.792284 3.173876 4.603414
v -0.326278 2.490977 -1.648095
v -2.565913 1.838656 3.965887
v 2.372074 2.026777 -4.174326
v 4.280729 2.706254 -0.235075
v 3.754193 3.988574 3.928059
v 4.540310 4.438328 -0.418817
v 5.100470 4.426476 2.974931
v 2.953075 4.159077 -0.953796
v 4.868437 4.979181 2.818897
v 3.529462 6.251609 2.809045
v 2.948700 5.668278 5.106507
v 1.561756 6.273960 5.337545
v -0.540413 5.753289 5.682706
v -2.134131 3.755661 5.948208
v 4.041309 4.194948 4.921026
v 2.079447 8.488921 0.001507
v 2.639605 8.477073 3.395266
v 2.665570 8.067447 0.073634
v 1.498040 5.573436 -3.233505
v 0.495293 6.078975 -0.541426
v 1.961262 8.441287 3.310838
v -1.886675 5.653121 -2.674567
v -2.178818 8.515838 0.874787
v -0.189196 7.671682 3.427780
v -3.193384 7.790342 0.869369
v -2.633218 7.778494 4.263127
v -3.115867 3.776428 0.000286
v -3.485350 6.430838 4.202808
v -3.554068 4.140471 -0.000609
v -5.352444 3.185734 1.209657
v 2.620914 9.214253 1.131507
v 1.460517 7.132854 -0.659187
v -0.963375 7.251371 -0.073547
v -3.013195 8.986138 2.060654
v -3.064242 5.872002 0.083244
v -4.324429 3.184384 0.281861
v -5.790070 3.063894 2.498310
v -3.015655 1.142445 -0.742436
v 2.558062 2.985659 -0.933317
v 5.101191 4.587643 0.705970
v 3.755850 4.014215 -1.048938
v 2.688623 6.148500 -0.680177
v 2.385466 7.113284 4.944633
v 0.567887 6.469157 5.545359
v -2.139301 5.852438 5.687071
v -3.399498 3.164813 5.885684
v 4.680783 3.994653 4.554888
v 3.649857 5.157564 5.032086
vt 0.505817 0.685814
vt 0.655829 0.809125
vt 0.611708 0.772857
vt 0.549939 0.722082
vt 0.442438 0.955151
vt 0.343799 0.839830
vt 0.647005 0.801871
vt 0.477735 0.984165
vt 0.455459 0.693983
vt 0.486559 0.991419
vt 0.503920 0.687549
vt 0.482147 0.987792
vt 0.479690 0.690766
vt 0.496993 0.678560
vt 0.673478 0.823632
vt 0.336548 0.868107
vt 0.628673 0.755109
vt 0.332136 0.864481
vt 0.611829 0.737397
vt 0.327724 0.860854
vt 0.594984 0.719685
vt 0.504208 1.005926
vt 0.523466 0.700321
vt 0.354196 0.882615
vt 0.656201 0.847670
vt 0.380669 0.904376
vt 0.588641 0.972423
vt 0.367433 0.893495
vt 0.622421 0.910047
vt 0.567587 0.736589
vt 0.389493 0.911629
vt 0.542361 0.986187
vt 0.398317 0.918883
vt 0.496080 0.999951
vt 0.385618 0.801298
vt 0.417874 0.774240
vt 0.430007 0.784214
vt 0.415032 0.825477
vt 0.455376 0.805068
vt 0.471922 0.818669
vt 0.451799 0.855700
vt 0.505013 0.845870
vt 0.544722 0.878511
vt 0.535629 0.924610
vt 0.567885 0.897552
vt 0.580019 0.907526
vt 0.544821 0.763005
vt 0.542891 0.814203
vt 0.552766 0.892492
vt 0.492720 0.949598
vt 0.445717 0.728032
vt 0.480901 0.749021
vt 0.405335 0.783220
vt 0.329930 0.862667
vt 0.603406 0.728541
vt 0.412358 0.769707
vt 0.588843 0.914779
vt 0.501405 0.682187
vt 0.664653 0.816379
vt 0.422561 0.778094
vt 0.334342 0.866294
vt 0.620251 0.746253
vt 0.514642 0.693067
vt 0.536702 0.711201
vt 0.427086 0.801100
vt 0.345372 0.875361
vt 0.642437 0.801389
vt 0.438073 0.810131
vt 0.360814 0.888055
vt 0.639311 0.878858
vt 0.464476 0.812549
vt 0.374051 0.898935
vt 0.605531 0.941235
vt 0.558763 0.729335
vt 0.589647 0.754723
vt 0.466531 0.833524
vt 0.385081 0.908002
vt 0.565501 0.979305
vt 0.479679 0.844331
vt 0.393905 0.915256
vt 0.519220 0.993069
vt 0.525970 0.863097
vt 0.420378 0.937017
vt 0.419940 0.919890
vt 0.629357 0.787364
vt 0.651417 0.805498
vt 0.546390 0.899168
vt 0.460087 0.969658
vt 0.399629 0.766906
vt 0.555346 0.906531
vt 0.479941 0.985979
vt 0.467574 0.692374
vt 0.572573 0.901405
vt 0.484353 0.989605
vt 0.491805 0.689157
vt 0.495384 0.998672
vt 0.549452 0.703617
vt 0.500690 0.762662
vt 0.527723 0.791086
vt 0.534436 0.850660
vt 0.494482 0.913586
vt 0.452263 0.745572
vn 0.397376 0.568754 -0.720147
vn -0.667004 0.705954 -0.238188
vn 0.744048 0.666557 -0.045767
vn 0.926068 0.268606 -0.265044
vn -0.791450 0.610025 0.038423
vn 0.732347 0.609154 0.304302
vn 0.941063 0.315766 0.121210
vn 0.225734 0.303435 -0.925727
vn -0.730097 0.637508 -0.246052
vn -0.266883 0.045018 -0.962677
vn -0.156776 0.860983 -0.483869
vn -0.245660 0.963323 0.107985
vn -0.632732 0.766621 0.109285
vn -0.379712 0.336484 -0.861741
vn 0.403687 0.810150 -0.425080
vn -0.411945 0.609110 -0.677706
vn 0.268419 0.929575 -0.252668
vn 0.260901 0.872028 0.414124
vn 0.360551 0.932685 0.010046
vn -0.946723 0.233271 -0.222035
vn -0.397650 0.905937 0.145436
vn -0.978958 0.179337 0.097367
vn -0.316693 0.688624 0.652305
vn -0.954382 -0.004527 -0.298554
vn -0.919028 0.269253 -0.287907
vn -0.894159 0.404780 0.191398
vn -0.969367 0.154793 0.190699
vn -0.525537 -0.101999 -0.844634
vn -0.519517 0.818919 -0.243871
vn -0.650933 -0.198827 -0.732635
vn -0.815527 0.513303 -0.267273
vn -0.537221 0.843225 -0.019132
vn -0.608309 0.779722 0.148300
vn -0.497935 -0.866885 0.023885
vn -0.819822 -0.537861 0.196459
vn -0.413258 -0.875394 0.250806
vn -0.658677 -0.544724 0.519057
vn 0.058256 -0.970063 -0.235763
vn 0.060495 -0.974879 -0.214361
vn 0.313634 -0.902988 0.293679
vn 0.149809 -0.970602 0.188387
vn 0.161483 -0.147316 -0.975818
vn 0.134773 -0.989206 0.057517
vn 0.575103 -0.747950 -0.331401
vn 0.336715 -0.933924 0.120040
vn 0.307127 -0.928865 0.207080
vn 0.270214 -0.960011 0.073229
vn 0.746136 0.494177 -0.446173
vn 0.969020 -0.232356 -0.083726
vn 0.013281 0.993413 -0.113819
vn 0.886666 -0.441313 0.138079
vn 0.318229 0.782712 -0.534876
vn 0.569630 0.551602 -0.609309
vn 0.786523 0.614107 -0.065222
vn 0.438972 0.896102 -0.065616
vn 0.905990 0.106908 -0.409577
vn 0.947705 0.290763 -0.131577
vn 0.468822 0.144732 0.871355
vn 0.216191 0.479191 0.850669
vn 0.101145 0.224940 0.969109
vn 0.161424 0.414944 0.895413
vn 0.142092 0.203622 0.968684
vn -0.237404 0.235823 0.942352
vn -0.051930 -0.322074 0.945289
vn -0.229766 -0.480144 0.846564
vn 0.788043 -0.431073 0.439504
vn 0.581204 -0.188921 0.791524
vn 0.577373 0.242611 0.779603
s 1
g pCylinder1
usemtl lambert10SG
f 7/14/1 36/53/2 51/35/3 38/56/4
f 9/18/5 37/54/6 51/35/3 36/53/2
f 10/20/7 38/56/4 51/35/3 37/54/6
f 7/14/1 39/58/8 52/36/9 36/53/2
f 39/58/8 1/1/10 40/60/11 52/36/9
f 52/36/9 40/60/11 8/16/12 41/61/13
f 36/53/2 52/36/9 41/61/13 9/18/5
f 1/1/10 42/63/14 53/37/15 40/60/11
f 42/63/14 11/23/16 43/65/17 53/37/15
f 53/37/15 43/65/17 12/24/18 44/66/19
f 40/60/11 53/37/15 44/66/19 8/16/12
f 11/23/16 45/68/20 54/38/21 43/65/17
f 14/28/22 46/69/23 54/38/21 45/68/20
f 12/24/18 43/65/17 54/38/21 46/69/23
f 11/23/16 42/64/14 55/39/24 45/68/20
f 42/64/14 1/4/10 47/71/25 55/39/24
f 55/39/24 47/71/25 13/26/26 48/72/27
f 45/68/20 55/39/24 48/72/27 14/28/22
f 1/4/10 49/74/28 56/40/29 47/71/25
f 49/74/28 15/30/30 50/76/31 56/40/29
f 56/40/29 50/76/31 16/31/32 18/77/33
f 47/71/25 56/40/29 18/77/33 13/26/26
f 15/30/30 19/79/34 57/41/35 50/76/31
f 17/33/36 20/80/37 57/41/35 19/79/34
f 16/31/32 50/76/31 57/41/35 20/80/37
f 15/30/30 49/75/28 58/42/38 19/79/34
f 49/75/28 1/3/10 21/82/39 58/42/38
f 58/42/38 21/82/39 2/5/40 22/83/41
f 19/79/34 58/42/38 22/83/41 17/33/36
f 1/3/10 23/85/42 59/43/43 21/82/39
f 23/85/42 3/7/44 24/87/45 59/43/43
f 59/43/43 24/87/45 4/8/46 25/88/47
f 21/82/39 59/43/43 25/88/47 2/5/40
f 3/7/44 26/90/48 60/44/49 24/87/45
f 6/12/50 27/91/51 60/44/49 26/90/48
f 4/8/46 24/87/45 60/44/49 27/91/51
f 3/7/44 23/86/42 61/45/52 26/90/48
f 23/86/42 1/2/10 28/93/53 61/45/52
f 61/45/52 28/93/53 5/10/54 29/94/55
f 26/90/48 61/45/52 29/94/55 6/12/50
f 1/2/10 39/59/8 62/46/56 28/93/53
f 39/59/8 7/15/1 38/57/4 62/46/56
f 62/46/56 38/57/4 10/22/7 30/96/57
f 28/93/53 62/46/56 30/96/57 5/10/54
f 2/6/40 31/98/58 63/47/59 32/99/60
f 31/98/58 10/21/7 37/55/6 63/47/59
f 63/47/59 37/55/6 9/19/5 41/62/13
f 32/99/60 63/47/59 41/62/13 8/17/12
f 2/6/40 32/99/60 64/48/61 33/100/62
f 8/17/12 44/67/19 64/48/61 32/99/60
f 12/25/18 33/100/62 64/48/61 44/67/19
f 2/6/40 33/100/62 65/49/63 34/101/64
f 33/100/62 12/25/18 46/70/23 65/49/63
f 65/49/63 46/70/23 14/29/22 48/73/27
f 34/101/64 65/49/63 48/73/27 13/27/26
f 2/6/40 34/101/64 66/50/65 22/84/41
f 34/101/64 13/27/26 18/78/33 66/50/65
f 66/50/65 18/78/33 16/32/32 20/81/37
f 22/84/41 66/50/65 20/81/37 17/34/36
f 2/6/40 25/89/47 67/51/66 35/102/67
f 25/89/47 4/9/46 27/92/51 67/51/66
f 67/51/66 27/92/51 6/13/50 29/95/55
f 35/102/67 67/51/66 29/95/55 5/11/54
f 2/6/40 35/102/67 68/52/68 31/98/58
f 5/11/54 30/97/57 68/52/68 35/102/67
f 10/21/7 31/98/58 68/52/68 30/97/57
